<svg width="56" height="26" viewBox="0 0 56 26" fill="none" xmlns="http://www.w3.org/2000/svg">
<path d="M34 12.25H20.5V7.375C20.5015 6.87818 20.6995 6.40212 21.0508 6.05081C21.4021 5.6995 21.8782 5.50148 22.375 5.5H33.625C34.1218 5.50148 34.5979 5.6995 34.9492 6.05081C35.3005 6.40212 35.4985 6.87818 35.5 7.375V12.25H34Z" stroke="#3A5779" stroke-width="2" stroke-linecap="round" stroke-linejoin="round"/>
<path d="M18.25 20.5V15.25C18.2523 14.4551 18.5692 13.6934 19.1313 13.1313C19.6934 12.5692 20.4551 12.2523 21.25 12.25H34.75C35.5449 12.2523 36.3066 12.5692 36.8687 13.1313C37.4308 13.6934 37.7477 14.4551 37.75 15.25V20.5" stroke="#3A5779" stroke-width="2" stroke-linecap="round" stroke-linejoin="round"/>
<path d="M18.25 20.5V20.125C18.2509 19.8269 18.3697 19.5413 18.5805 19.3305C18.7913 19.1197 19.0769 19.0009 19.375 19H36.625C36.9231 19.0009 37.2087 19.1197 37.4195 19.3305C37.6303 19.5413 37.7491 19.8269 37.75 20.125V20.5" stroke="#3A5779" stroke-width="2" stroke-linecap="round" stroke-linejoin="round"/>
</svg>
