
<svg width="19" height="19" viewBox="0 0 19 19" fill="none" xmlns="http://www.w3.org/2000/svg">
<path d="M1.35 17.7C1.01667 17.8333 0.708333 17.7958 0.425 17.5875C0.141667 17.3792 0 17.1 0 16.75V2.75C0 2.53333 0.0625 2.34167 0.1875 2.175C0.3125 2.00833 0.483333 1.88333 0.7 1.8L6 0L12 2.1L16.65 0.3C16.9833 0.166667 17.2917 0.204167 17.575 0.4125C17.8583 0.620833 18 0.9 18 1.25V9.675C17.75 9.29167 17.4542 8.94167 17.1125 8.625C16.7708 8.30833 16.4 8.03333 16 7.8V2.7L13 3.85V7C12.65 7 12.3083 7.02917 11.975 7.0875C11.6417 7.14583 11.3167 7.23333 11 7.35V3.85L7 2.45V15.525L1.35 17.7ZM2 15.3L5 14.15V2.45L2 3.45V15.3ZM13 15C13.5667 15 14.0375 14.8333 14.4125 14.5C14.7875 14.1667 14.9833 13.6667 15 13C15.0167 12.4333 14.8292 11.9583 14.4375 11.575C14.0458 11.1917 13.5667 11 13 11C12.4333 11 11.9583 11.1917 11.575 11.575C11.1917 11.9583 11 12.4333 11 13C11 13.5667 11.1917 14.0417 11.575 14.425C11.9583 14.8083 12.4333 15 13 15ZM13 17C11.9 17 10.9583 16.6083 10.175 15.825C9.39167 15.0417 9 14.1 9 13C9 11.9 9.39167 10.9583 10.175 10.175C10.9583 9.39167 11.9 9 13 9C14.1 9 15.0417 9.39167 15.825 10.175C16.6083 10.9583 17 11.9 17 13C17 13.3833 16.9542 13.7458 16.8625 14.0875C16.7708 14.4292 16.6333 14.75 16.45 15.05L19 17.6L17.6 19L15.05 16.45C14.75 16.6333 14.4292 16.7708 14.0875 16.8625C13.7458 16.9542 13.3833 17 13 17Z" fill="currentColor"/>
</svg>
