<svg width="52" height="22" viewBox="0 0 52 22" fill="none" xmlns="http://www.w3.org/2000/svg">
<path d="M34.3332 8.50009V13.5001C34.3332 15.5834 33.9165 17.0418 32.9832 17.9834L27.6665 12.6668L34.1082 6.2251C34.2582 6.88343 34.3332 7.63343 34.3332 8.50009Z" stroke="#3A5779" stroke-width="2" stroke-linecap="round" stroke-linejoin="round"/>
<path d="M34.1082 6.22508L21.2248 19.1084C18.7165 18.5334 17.6665 16.8001 17.6665 13.5001V8.50008C17.6665 4.33341 19.3332 2.66675 23.4998 2.66675H28.4998C31.7998 2.66675 33.5332 3.71675 34.1082 6.22508Z" stroke="#3A5779" stroke-width="2" stroke-linecap="round" stroke-linejoin="round"/>
<path d="M32.9834 17.9834C32.0418 18.9168 30.5834 19.3334 28.5001 19.3334H23.5001C22.6334 19.3334 21.8834 19.2584 21.2251 19.1084L27.6668 12.6667L32.9834 17.9834Z" stroke="#3A5779" stroke-width="2" stroke-linecap="round" stroke-linejoin="round"/>
<path d="M21.2002 7.6501C21.7669 5.20843 25.4336 5.20843 26.0002 7.6501C26.3252 9.08343 25.4252 10.3001 24.6335 11.0501C24.0585 11.6001 23.1502 11.6001 22.5669 11.0501C21.7752 10.3001 20.8669 9.08343 21.2002 7.6501Z" stroke="#3A5779" stroke-width="2"/>
<path d="M23.5791 8.24992H23.5866" stroke="#3A5779" stroke-width="2" stroke-linecap="round" stroke-linejoin="round"/>
</svg>
