<svg width="56" height="26" viewBox="0 0 56 26" fill="none" xmlns="http://www.w3.org/2000/svg">
<rect width="56" height="26" rx="12" fill="#3A5779"/>
<path d="M36.3332 10.5001V15.5001C36.3332 17.5834 35.9165 19.0418 34.9832 19.9834L29.6665 14.6668L36.1082 8.2251C36.2582 8.88343 36.3332 9.63343 36.3332 10.5001Z" stroke="white" stroke-width="2" stroke-linecap="round" stroke-linejoin="round"/>
<path d="M36.1082 8.22508L23.2248 21.1084C20.7165 20.5334 19.6665 18.8001 19.6665 15.5001V10.5001C19.6665 6.33341 21.3332 4.66675 25.4998 4.66675H30.4998C33.7998 4.66675 35.5332 5.71675 36.1082 8.22508Z" stroke="white" stroke-width="2" stroke-linecap="round" stroke-linejoin="round"/>
<path d="M34.9834 19.9834C34.0418 20.9168 32.5834 21.3334 30.5001 21.3334H25.5001C24.6334 21.3334 23.8834 21.2584 23.2251 21.1084L29.6668 14.6667L34.9834 19.9834Z" stroke="white" stroke-width="2" stroke-linecap="round" stroke-linejoin="round"/>
<path d="M23.2002 9.6501C23.7669 7.20843 27.4336 7.20843 28.0002 9.6501C28.3252 11.0834 27.4252 12.3001 26.6335 13.0501C26.0585 13.6001 25.1502 13.6001 24.5669 13.0501C23.7752 12.3001 22.8669 11.0834 23.2002 9.6501Z" stroke="white" stroke-width="2"/>
<path d="M25.5791 10.2499H25.5866" stroke="white" stroke-width="2" stroke-linecap="round" stroke-linejoin="round"/>
</svg>
